<mxfile host="www.draw.io" modified="2019-11-12T08:00:06.888Z" agent="Mozilla/5.0 (Windows NT 10.0; Win64; x64; rv:70.0) Gecko/20100101 Firefox/70.0" etag="WnSVMV23s4u2JEvLBCrp" version="12.2.3" type="github" pages="1">
  <diagram id="2ybl-CBYEVXoLRspCggs" name="Page-1">
    <mxGraphModel dx="1408" dy="1924" grid="1" gridSize="10" guides="1" tooltips="1" connect="1" arrows="1" fold="1" page="1" pageScale="1" pageWidth="827" pageHeight="1169" math="0" shadow="0">
      <root>
        <mxCell id="0"/>
        <mxCell id="1" parent="0"/>
        <mxCell id="SjMGYK_2kaPN_tZI_Yqk-1" value="&lt;p style=&quot;font-size: 18px&quot;&gt;&lt;font style=&quot;font-size: 18px&quot;&gt;&lt;b&gt;&lt;span&gt;A+&lt;font style=&quot;font-size: 18px&quot; face=&quot;宋体&quot;&gt;（&lt;/font&gt;&lt;font style=&quot;font-size: 18px&quot; face=&quot;Times New Roman&quot;&gt;B +C&lt;/font&gt;&lt;font style=&quot;font-size: 18px&quot; face=&quot;宋体&quot;&gt;）&lt;/font&gt;&lt;font style=&quot;font-size: 18px&quot; face=&quot;Times New Roman&quot;&gt;+D&lt;/font&gt;&lt;/span&gt;&lt;/b&gt;&lt;/font&gt;&lt;/p&gt;" style="rounded=0;whiteSpace=wrap;html=1;" vertex="1" parent="1">
          <mxGeometry x="10" y="90" width="190" height="60" as="geometry"/>
        </mxCell>
        <mxCell id="SjMGYK_2kaPN_tZI_Yqk-8" value="" style="shape=image;verticalLabelPosition=bottom;labelBackgroundColor=#ffffff;verticalAlign=top;aspect=fixed;imageAspect=0;image=data:image/png,iVBORw0KGgoAAAANSUhEUgAAAlYAAAGaCAYAAADNZw1NAAAgAElEQVR4nO3dd5zc5J3H8WeLCzbGxgbHJqaDKQqEFpovlEAI7Y4LQSF0Ejh6YmogtAgcDg4CBMhRQg09IoZQDo7QjxB6SVAcwFQDphhjY/C6bPneH7uzO0Wzo93RjDSPPu/Xa/7wjjTze6R5pK8fPaMxAgAAQCxM0gUAAADYgmAFAAAQE4IVAABATAhWAAAAMSFYAQAAxIRgBQAAEBOCFQAAQEwIVgAAADEhWAEAAMSEYAUAABATghUAWMQYw4MHjxo9IvXBGvdxAEAdRT34AxgYghUAZBDBCqgNghUAZBDBCqgNghUAZBDBCqgNghUAZBDBCqgNghUAZBDBCqgNghUAZBDBCqgNghUAZBDBCqgNghUAZBDBCqgNghUAZBDBCqgNghUAZBDBCqgNghUAZBDBCqgNghUAZFDxwX/JkiW67bbbNH/+/IQqAmIU+PI8X0ECb02wAoAMyh3833zzTZ100klaccUV1dTUpOnTpydcWSDf8+QnXAUaX+A5Mo5b988SwQoAMqa9vV3GGO24445qamrSuHHjdMIJJ+iNN95ItrDAl+s4cv24xhkC+Z4rx1Q6uUZdLst8eY6RcRtrCwW+K1Pn/UqwAoCMePfdd3Xaaadp4sSJMsbo29/+tm6++WYtXry4ilf15cZysu0OVV5s124Cea6RMabCiTXqclnXmMFKyo1ceXW7LEiwAgCLdXR06J577tGuu+6q5uZmjRkzRj/96U9jnLweR7AK5DmOanHO9t1ogSnqcmhEgTzHyIkvtfeLYAUAFvrwww911llnaeWVV5YxRltssYWuu+46tbW1SYrzW4ExBCvfrdlISOA5kQJT1OXQoHy3bqNWBCsAsERXV5f+93//V//+7/+u1tZWjRo1SkcccYRefvnlkmXTE6y6RxMivUTgy3Ocnst2RsaEjHIFnlyn+3nH9csHpqjLRW2F78opqCvobVt+vV6QC3E9f+ttQP48r0Ce6xS9lsKXc/pet3wdxW125HqBAs/tu/Ta33OSgp75b8UBOPD7tmPvtixcoqBe33N66qtuhLLwfbtr7p8v18R5qbk8ghUANLhPPvlE5557rtZYYw0ZY7Txxhvrqquu0pdffll2nfQEK19upEDTEyLc3KhDLlTkrRt4cvLCROC7cpyQwBR1uYgCz8kLFEHPZcVcWAzk94QkJy9EFV6ayp/n5cj1ituYCwT5Qc2V6/sKAk9Oz3tVqsPL/2JAzzboe91yz+X+XRwE1T0KVBDqepZz8uovapdf0I5BBtnchPTecp28dpZdiWAFAOjfI488oh/+8IcaMmSIRowYoZ/85Cd67rnnIq072GDlu/kjMOUfkbNW4EX8Np4vt+jE3n1CLQwdxfNoSudORV0uqpATdi6IFAUpkx+AQs7woTWUvFZuueKQUKmO0uf7RqX6ey7/9UvbVNyOXMjJ/3tYuwr33UB011H4+fLlVpxDRbACAIT47LPP9Otf/1qTJ0+WMUbf+MY3dNlllw34xp6NN2KVJ/ALLpV5gXpDRHEpJZf4oi4XuZa80ZziR8Gcnp5gUjByFaWGnlCW91qhy1Wso2/0yy25cWZ/zxXVn6vdd8MDdEgQDKt30MGqeDRtQOvVZw4dwQoAGsCTTz6p/fbbT8OGDdPw4cO1//776y9/+cugXy89war7MlS0E2XP3CPHlecHhSfnMif6kpN61OWiGsh9knreu9wk6qqCVZQ6Ar/8fKj+nut+g2jBKrdchXoHHazKvm+l1ep3qwiCFQCk1Pz583XppZf2zP8xWmeddXThhRdq7ty5Vb92eoJV+UtjJe/Tc2IvPGGnIVhFOdH7ch1Xfs/yYe2tPlhFCxxBXogquZRX9rnwYFXajnKXbOMcsRpgSCqaC1ZrBCsASJlnn31WP/7xjzVixAgNHTpUe++9tx599NFY3yNNwSp83kzxIqXBoeDkXOaEW3ICj7rcAGsP+/aeVzDRPm+Sd5nJ1uE1dL9+foAJD2CV6ijdT32jOP09V/T6vX/LvV/4JcnS/RTvHKvu7Vdue/dfT60RrAAgBb788ktdeeWV2njjjWWM0RprrKHzzjtPn3zySU3eL13BSpXnzuQFou656n7v7QG8IJDv930LzsnNEwq87lsE5OZi9Q62RFsueun5t4DIu5zm9d1yoXAT5X3bzy8OTKb0m30Flw5z37Qr3Vb915ELaH5e2IvyXNH2z68ld2lzEPUWfmMxzu2dv5w7uPlYVSJYAUCCXn75ZR1++OEaNWqUWltb9f3vf18PPvigurq6avq+8QWrGPWcvMtdFvSL7+2UuxyVNzLUt0z36+R+iNcrvhdUpOUGUHrx/aN62uDn3W4g16zib1bm2ts7spP3Wo5bFFKcwnVLRr3K1CH58ryg4Pm+ANffc+oLUCGT8ovfr3BuVli9ldtQzfbOW0Be2Yn4tUWwAoA6W7hwoa699lptvvnmMsZo5ZVX1tlnn60PP/ywbjWkMlhJ6r6hpKfYfoe5gXD3dzsQrACgToIg0DHHHKPRo0erublZu+22m+699151dHTUvZb0BqvsIljZgWAFADW0ePFi3XTTTZoyZYqMMZo4caJOP/10vffee4nWRbBKm765SPWcaI34EawAoAZef/11HX/88Ro3bpyampq00047afr06Wpvb0+6NEkEq371d7PNMnONqnzDWOYdNay6b+/aIlgBQEyWLl2qP/zhD9p+++1ljNH48eN18skn680330y6tBIEK6A2CFYAUKW3335bp5xyir72ta/JGKPttttOt99+u5YsWZJ0aWURrIDaIFgBwCC0t7frzjvv1Pe+9z01NTVp7NixOu644/Taa68lXVokBCugNghWADAAs2bN0hlnnKGVVlpJxhhtvfXWuvHGG7Vo0aKkSxsQghVQGwQrAKigs7NT9913n3bffXe1tLRo9OjROvroo/Xqq68mXdqgEayA2iBYAUAZs2fP1rRp07TqqqvKGKNvfetbuuaaa7Rw4cKkS6sawQqoDYIVAOTp6urSn//8Z+25555qbW3Vsssuq8MOO0wvvvhi0qXFimAF1AbBCgAkffrpp/qv//ovrbnmmjLG6Jvf/KYuv/xyLViwIOnSaoJgBdQGwQpApj3++OP60Y9+pKFDh2qZZZbRwQcfrKeffjrpsmqOYAXUBsEKQOZ8/vnnuvjii7XuuuvKGKP1119fl1xyiebNm5d0aXVDsAJqg2AFIDOeeuopHXjggRo+fLiGDRumfffdV0888UTSZSWCYIVG8eqrr2rWrFlJlxEZwQqA1b744gv99re/1QYbbCBjjNZee21dcMEFmjNnTtKlJari77Lx4MFj0I9IfbDGfRwAYvX888/rkEMO0ciRIzVkyBDttddeevjhh9XV1ZV0aQAGwHEcnXDCCUmXETuCFYDU++qrr/S73/1Om266qYwxWm211XTOOefo448/Tro0AINEsAKAOvvb3/6mI488Usstt5xaWlq0xx576P7771dnZ2fSpQGoEsEKAOqgra1NN9xwg7bccksZYzRp0iR5nqf3338/6dIAxIhgBQA1NGPGDE2dOlXLL7+8mpubtcsuu+hPf/qTOjo6ki4NQA0QrAAgZkuWLNEtt9yibbbZRsYYTZgwQaeeeqreeeedpEsDUGMEKwCIycyZM3XiiSdqhRVWUFNTk3bYYQfdcccdWrp0adKlAagTghUAVKG9vV133HGHdthhBzU1NWmFFVbQiSeeqJkzZyZdGoAEEKwAYBDeffddnXrqqZowYYKMMdpmm210yy23aPHixUmXBiBBBCsAiKijo0N33323dtllFzU3N2v55ZfX1KlTNWPGjKRLA5ASBCsAqOCDDz6Q53maNGmSjDHacsstdf3116utrS3p0gCkDMEKAEJ0dnbq/vvv1x577KGWlhaNGjVKRx55pF555ZWkSwOQYgQrAMjz8ccf65xzztFqq60mY4w22WQT/e53v9OXX36ZdGkAGgDBCkDmdXV16eGHH9Zee+2lIUOGaOTIkTrkkEP0/PPPJ10agAZDsAKQWZ999pkuuOACrb322jLGaIMNNtBvf/tbffHFF0mXBqBBEawAZM7//d//ad9999WwYcM0fPhwHXjggXrqqaeSLguABQhWADJh3rx5uuSSS7T++uvLGKN11llHF110kebOnZt0aQAsQrACYLVnnnlGBx98sJZZZhkNHTpUP/rRj/TYY48lXRYASxGsAFhnwYIFuuKKK7TRRhvJGKM11lhD5513nj799NOkSwNgOYIVAGu89NJLOuyww7TsssuqtbVVe+65px588EF1dXUlXRqAjCBYAWhoCxcu1DXXXKNvfetbMsZolVVW0bRp0zR79uykSwOQQQQrAA3p1Vdf1THHHKPRo0erublZu+++u+677z51dnYmXRqADCNYAWgYixYt0o033qgpU6bIGKOVVlpJZ5xxhmbNmpV0aQAgiWAFoAG89tprOu644zR27Fg1NTXpe9/7nu688061t7cnXRoAFCBYAUilJUuW6Pbbb9d2220nY4zGjx+vk08+WW+99VbSpQFAWQQrAKny1ltv6eSTT9b48eNljNH222+v22+/XUuWLEm6NACoiGAFIHHt7e2aPn26dtppJzU1NWns2LE6/vjj9dprryVdGgAMCMEKQGJmzZqlM844QyuttJKMMZoyZYpuuukmLVq0KOnSAGBQCFYA6qqzs1P33nuvdt99d7W0tGj06NE65phjFARB0qUBQNUIVgDqYvbs2Tr77LO1yiqryBijzTffXNdee60WLlyYdGkAEBuCFYCa6erq0oMPPqjvf//7am1t1bLLLqvDDjtML730UtKlAUBNEKwAxO6TTz7ReeedpzXXXFPGGG200Ua64oortGDBgqRLA4CaIlgBiM2jjz6qvffeW0OHDtWIESP04x//WM8880zSZQFA3RCsAFRl7ty5uvDCC7XOOuvIGCPHcXTppZdq3rx5SZcGAHVHsAIwKH/5y190wAEHaPjw4Ro2bJj2228/Pfnkk0mXBQCJIlgBiGz+/Pm67LLL9I1vfEPGGE2ePFm//vWv9dlnnyVdGgCkAsEKQEXPPfecfvKTn2jEiBEaMmSIXNfVI488oq6urqRLA4BUIVgBCPXll1/qqquu0iabbCJjjFZffXX953/+pz7++OOkSwOA1CJYASjwyiuv6IgjjtCoUaPU0tKiPfbYQw888ACjUwAQAcEKgNra2nT99ddriy22kDFGkyZNkud5+uCDD5IuDQAaCsEKyLB//OMf+tnPfqYxY8aoublZu+66q+6++251dHQkXRoANCSCFZAxixcv1i233KJvf/vbMsZowoQJOu200/Tuu+8mXRoANDyCFZARb7zxhk488UStsMIKampq0o477qg//vGPWrp0adKlAYA1CFaAxZYuXSrf97XDDjuoqalJK6ywgk466STNnDkz6dIAwEoEK8BC77zzjn7xi1/oa1/7mowx2mabbXTrrbdqyZIlSZcGAFYjWAGW6Ojo0J/+9CftvPPOam5u1vLLL6+pU6dqxowZSZcGAJlBsAIa3Pvvv69f/vKXmjRpkowx2mqrrXTDDTeora0t6dIAIHMIVkAD6uzs1P33369/+7d/U0tLi5ZbbjkdddRR+tvf/pZ0aQCQaQQroIF89NFHOuecc7TaaqvJGKNNN91UV199tb766qukSwMAiGAFpF5XV5ceeugh7bXXXhoyZIhGjhypQw89VC+88ELSpQEAihCsgJSaM2eOzj//fK211loyxmjDDTfUf//3f+uLL75IujQAQBkEKyBlnnjiCe2zzz4aNmyYhg8frgMPPFB//etfky4LABABwQpIgc8//1y/+c1vtN5668kYo3XXXVcXX3yxPv/886RLAwAMAMEKSNDTTz+tgw46SMsss4yGDh2qffbZR48//njSZQEABolgBdTZggULdPnll+ub3/ymjDFaa621dP755+vTTz9NujQAQJUIVkCdvPjii/qP//gPLbvssmptbdUPfvADPfTQQ+rq6kq6NABATAhWQA199dVXuvrqq7XZZpvJGKNVV11Vv/rVr/TRRx8lXRoAoAYIVkAN/P3vf9dRRx2l5ZZbTi0tLfrXf/1X/c///I86OzuTLg0AUEMEKyAmixYt0u9//3tttdVWMsbo61//us4880y9//77SZcGAKgTghVQpddee03HHnusxo4dq+bmZu28886666671NHRkXRpAIA6I1gBg7BkyRLddttt2nbbbWWM0fjx43XKKafo7bffTro0AECCCFbItBdffFHvvfde5OXfeust/fznP9eKK66opqYmfec739Ef/vAHLV26tIZVAgAaBcEKmfXOO+9owoQJOv300/tdrr29XdOnT9d3v/tdNTU1ady4cTrhhBP0+uuv16lSAECjIFghk+bOnat1111XxhhNnDhR7e3tJcu89957Ov300zVx4kQZY/Qv//Ivuvnmm7V48eIEKgYANAKCFTJn0aJFmjJliowxvY8777xTktTZ2al77rlHu+22m5qbmzVmzBj99Kc/VRAECVcNAGgEBCtkSmdnp/baa6+CUGWM0QYbbKCzzjpLK6+8sowx2nzzzXXddddp4cKFSZcMAGggBCtkyrHHHlsSqvIfhx9+uF5++eWkywQANCiCFTLjoosu6jdUHX300UmXCABocAQrZILv+2pqauo3WI0fP15LlixJulQAQAMjWMF6Tz75pIYNG9ZvqMo9brvttqTLBQA0MIIVrNbR0aGf//zn2mOPPbT11ltr8uTJGjt2bNnRq2233TbpkgEADYxgFbZyhJENHjx4DO4BADYjWIWtzMEfqAn6FgDbEazCVubgD9QEfQuA7QhWYStz8Adqgr4FwHYEq7CVOfgDNUHfAmA7glXYyhz8gZqgbwGwHcEqbGUO/kBN0LcA2I5gFbYyB3+gJuhbAGxHsApbmYM/UBP0LQC2I1iFrczBH6gJ+hYA2xGswlbm4A/UBH0LgO0IVmErc/AHaoK+BcB2BKuwlTn4AzVB3wJgO4JV2Moc/AEp8OV5voIYX5K+BcB2BKuwlTN38A/ke578pMtA6gSeI+O4sX02ste3AGQNwSps5VQc/AP5nivHVDqpRV2u3Oq+XMeR68c5LoFSvjzHyLiNF18D35UZ7OerSDr6FgDUDsEqbOVYD/6+XDPQE2ogzzUyxlQ4oUVdrp/aHEcemaoOGjdYSbmRK6/qy4IEKwC2I1iFrRznwd93Bx18fDfaelGXKxTIcxw16HkedRfIc4ycKlM4wQqA7QhWYSvHdvDvDi+e68iYgZ+UAs+JFJiiLlfAdxt29AQJ8d2qR60IVgBsR7AKWzmug7/vynF99V4OrHRSCjy5TvelPcf1ywemqMuVfyN5jok0WhX4fe/V+35Fr9U3x6v7dY0Z+OXFwHflmNz75OZ85V6v7+9ekAuSPX/rbURRHa5T9FrR6g2vI7dqbls4cr1AgecWtrOf54OeuWzFYXag29f3nJ76qhttLHzf7nor8+UOYt/mI1gBsB3BKmzlWA7+PaNVPSchv2cuVNmTYeDJyTuRB74rxwkJTFGX65cvN8ryvlsUOrzuk3pvQMwPPq5c31cQdC8zkJN+4Dl5gSIo2laB/NyIX16IKrwslT/XzJHrFdeXa0P/9Vaqw8uf5N+zH/pCRj/P97xHYRCMuH2L2uUXtGOQE8pzk9F7S3X6/2z2rUiwAoAKCFZhK8dx8A88OfkjVLmTa+jZK3z+SuncqajLRagtwrcNw94rdxLO/3v3+w/2hBtysi7ZVn2BqDcAhbxZ6HYI2e7h9Vaqo/T5whGrKM+Xtin69i1sV/dyg9nm3XUUfgx9uZHmTxGsAKASglXYyjEc/H23+OTVzyhDmVGekkt8UZerXF3lEaueSfclOTAkqAxqjlfx64U9Ci6d9gSTgpGr4pcKq6Nnu+e9VuhyFevoG/1yQ2+aWen5omBV5fYddLAqGWkb6LrV3XaBYAXAdgSrsJWrPfj3d5IOm8Re5iRbckKNulzlAgsuU4Yqd+IPmS9WVbAayD2Sct+wLDNXrapgFaWOwO9/PlS/z0cMVhG376CDVdn3jbJq9beLIFgBsB3BKmzlKg/+5S5VlZ3EXvdg1V+Nhe9VukzpfbmqD1YR5/c4rvyydcURrCJO6M8LUKF1hD4fHqwGu32rG7EaREAqmg82WAQrALYjWIWtXNXBvycAlHs2bBJ7mZNdyckz6nJR6+w3SOQuvYVfMstfr6pg1fs+pd/e89z8Seh5k7zLTLYO3w7dr58fYMLrrVSHL7foDQtHcCI8b0L+PcjtW+0cq+7tV257FxnEFxLKIVgBsB3BKmzlQR/8g8qXS/JvGBrk/zk3wtFz+Sjwur+en7vNgD+w5aKVW2G+Ta7W4m/KFYy45b65NvjRjILbJ5RcMg27NUTet/384sBkSr/ZF7He/uvIBTQ/L+yVjkiVfT4XivNrqWL7VvyW6aC3d/Gy7uDnZIUgWAGwHcEqbOVBHfz7RgLK3Wk97ISWf8sA33UK/p77AVyv+D5MkZaLqOeEX+6yYPF9nQrnDRXfZ2rwoxol94/qqcfPu91A8a0rirdh78hO3ms5rjegesvVIfnyvKDg+eI5VGWf7w3TpZPyB75949nm5dtZsJC80In4g0ewAmA7glXYypk7+Afye++R1LiquySJeshe3wKQNQSrsJU5+DckglX60bcA2I5gFbYyB/8G1DcXiZ9ATC/6FgDbEazCVubgX50K9/EKvwFoVW8Y21yvhlT37T149C0AtiNYha3MwR+oCfoWANsRrMJW5uAP1AR9C4DtCFZhK3PwB2qCvgXAdgSrsJU5+AM1Qd8CYDuCVdjKHPyBmqBvAbAdwSpsZQ7+QE3QtwDYjmAVtjIHf6Am6FsAbEewCluZgz9QE/QtALYjWIWtzMEfqAn6FgDbEazCVubgD9QEfQuA7QhWYStbcPC/9tpr9c9//jPpMiDpiSee0L333pt0GalgQ98CgP4QrMJWjvK7azx48BjUAwBsRrCyVEtLi6644oqky4Ckgw46SFOmTEm6DABAHRCsLEWwSg+CFQBkB8HKUgSr9CBYAUB2EKwsRbBKD4IVAGQHwcpSBKv0IFgBQHYQrCxFsEoPghUAZAfBylIEq/QgWAFAdhCsLEWwSg+CFQBkB8HKUgSr9CBYAUB2EKwsRbBKD4IVAGQHwcpSBKv0IFgBQHYQrCxFsEoPghUAZAfBylIEq/QgWAFAdhCsLEWwSg+CFQBkB8HKUgSr9CBYAUB2EKwsRbBKD4IVAGQHwcpSBKv0IFgBQHYQrCxFsEoPghUAZAfBylIEq/QgWAFAdhCsLEWwSg+CFQBkB8HKUgSr9CBYAUB2EKwsRbBKD4IVAGQHwcpSBKv0IFgBQHYQrCxFsEoPghUAZAfBylIEq/QgWAFAdhCsLEWwSg+CFQBkB8HKUgSr9CBYAUB2EKwsRbBKD4IVAGQHwcpSBKv0IFgBQHYQrCxFsEoPghUAZAfBylIEq/QgWAFAdhCsLEWwSg+CFQBkB8HKUgSr9CBYAUB2EKwsRbBKD4IVAGQHwcpSBKv0IFgBQHYQrCxFsEoPghUAZAfBylIEq/QgWAFAdhCsLEWwSg+CFQBkB8HKUgSr9CBYAUB2EKwsRbBKD4IVAGQHwcpSBKv0IFgBQHYQrCxFsEoPghUAZAfBylIEq/QgWAFAdhCsLEWwSg+CFQBkB8HKUgSr9CBYAUB2EKwsRbBKD4IVAGQHwcpSBKv0IFgBQHYQrCxFsEoPghUAZAfBylIEq/QgWAFAdhCsLEWwSg+CFQBkB8HKUgSr9CBYAUB2EKwsRbBKD4IVAGQHwcpSBKv0IFgBQHYQrCxFsEoPghUAZAfBylIEq/QgWAFAdhCsLEWwSg+CFQBkB8HKUgSr9CBYAUB2EKwsRbBKD4IVAGQHwcpSBKv0IFgBQHYQrCxFsErGyy+/rL333rvgYYyRMabk7w888EDS5QIAYkawshTBKhnt7e1ac801e8NUucdyyy2nuXPnJl0uACBmBCtLEaySc/3111cMVqeddlrSZQIAaoBgZSmCVXI6Ojq01lprMVoFABlEsLIUwSpZN9xwA6NVAJBBBCtLEayS1dHRobXXXpvRKgDIGIKVpQhWyfv973/PaBUAZAzBylIEq+QVj1oxWgUA9iNYWYpglQ433ngjo1UAkCEEK0sRrNKho6NDkydPZrQKADKCYGUpglV63HjjjYxWAUBGEKwsZUuwqnSjTR48eFT3ABAvgpWlbApWAGqD/gXEj2BlKYIVgEroX0D8CFaWIlgBqIT+BcSPYGUpghWASuhfQPwIVpYiWAGohP4FxI9gZSmCFYBK6F9A/AhWliJYAaiE/gXEj2BlKYIVgEroX0D8CFaWIlgBqIT+BcSPYGUpghWASuhfQPwIVpYiWAGohP4FxI9gZSmCFYBK6F9A/AhWliJYAaiE/gXEj2BlKYIV0CACX57nK0jgrelfQPwIVpYiWNVDIN/z5CddBhpe4Dkyjlv3z1K6+xfQmAhWliJY1Vjgy3UcuX5c4wyBfM+VYyqdXKMul2W+PMfIuI21hQLflanzfk1t/wIaGMHKUgSrYr7c2E603aHKi+3aTSDPNTLGVDixRl0u6xozWEm5kSuvbpcFCVZA/AhWliJYFYsrWAXyHEe1OGf7brTAFHU5NKJAnmPkxJfa+0WwAuJHsLIUwapYTMHKd2s2EhJ4TqTAFHU5NCjfrduoFcEKiB/BylIEq2JxBKvu0YRILxP48hyn57KdkTEho1yBJ9fpft5x/fKBKepyUVvhu3IK6gp625ZfrxfkQlzP33obkD/PK5DnOkWvpfDlnL7XLV9HcZsduV6gwHP7Lr3295ykoGf+W3EADvy+7di7LQuXKKjX95ye+qoboSx83+6a++fLNXFeai6PYAXEj2BlKYJVsTiClS83Uu/jnxcAABVsSURBVKDpCRFubtQhFyry1g08OXlhIvBdOU5IYIq6XESB5+QFiqDnsmIuLAbye0KSkxeiCi9N5c/zcuR6xW3MBYL8oObK9X0FgSen570q1eHlfzGgZxv0vW6553L/Lg6C6h4FKgh1Pcs5efUXtcsvaMcgg2xuQnpvuU5eO8uuRLACGhjBylJZD1a+mz/6Uv4xoKwVeBG/jefLLTqxd59QC0NH8Tya0rlTUZeLKuSEnQsiRUHK5AegkDN8aA0lr5VbrjgkVKqj9Pm+Uan+nst//dI2FbcjF3Ly/x7WrsJ9NxDddRR+xny5FedQEayARkawslTWg1Wpeo5Y5Qn8gktlXqDeEFFcTsklvqjLRa4lbzSn+FEwp6cnmBSMXEWpoSeU5b1W6HIV6+gb/XJLbpzZ33NF9edq993wEB0SBMPqHXSwKh5NG9B69ZlDR7AC4kewshTBqlhcc6yinih75h45rjw/KDw5lznRl5zUoy4X1UDuk9Tz3uUmUVcVrKLUEfjl50P191z3G0QLVrnlKtQ76GBV9n0rrVa/W0UQrID4EawsRbAqFs+3AstdGit5r54Te+EJOw3BKsqJ3pfruPJ7lg9rb/XBKlrgCPJCVMmlvLLPhQer0naUu2Qb54jVAENS0VywWiNYAfEjWFmKYFUsrvtYhc2bKV6kNDgUnJzLnHBLTuBRlxtg7WHf3vMKJtrnTfIuM9k6vIbu188PMOEBrFIdpfuqbxSnv+eKXr/3b7n3C78kWbqf4p1j1b39ym3v/uupNYIVED+ClaUIVsVivPN6pbkzeYGoe66633t7AC8I5Pt934JzcvOEAq/7FgG5uVi9gy3Rloteev4tIPIup3l9t1wo3Ex53/bziwOTKf1mX8Glw9w37Uq3Vf915AKanxf2ojxXtP3za8ld2hxEvYXfWIxze+cv5w5uPlaVCFZA/AhWliJY1VjPybvcZUG/+N5OuctReSNDfct0v07uh3i94ntBRVpuAKUX3z+qpw1+3u0Gcs0q/nZlrr29Izt5r+W4RSHFKVy3ZNSrTB2SL88LCp7vC3D9Pae+ABUyKb/4/QrnZoXVW7kN1WzvvAXklZ2IX1up7V9AAyNYWYpgVQ+B/N77HWULd3+3Q7r7F9CYCFaWIlihlghWdqB/AfEjWFmKYIXa6ZuLVM+J1ogf/QuIH8HKUgSrjOjvZptl5hpV+YaxzDtqWHXf3rVF/wLiR7CyFMEKQCX0LyB+BCtLEawAVEL/AuJHsLIUwQpAJfQvIH4EK0sRrABUQv8C4kewshTBCkAl9C8gfgQrSxGsAFRC/wLiR7CyFMEKQCX0LyB+BCtLEawAVEL/AuJHsLIUwQpAJfQvIH4EK0sRrABUQv8C4kewspRNwYoHDx61ewCIF8HKUrYEK9RHe3u7tt9+e6244op69913ky6nrOnTp8sYo1tvvTXpUgAgFMHKUgQrDMQRRxyhoUOH6sknn0y6lIoOPPBAjRkzRu+//37SpQBACYKVpQhWiOqyyy6TMUbXXXdd0qVEMn/+fK2yyiracccd1dnZmXQ5AFCAYGUpghWieOihh9Ta2tpwB4HHHntMTU1NuvTSS5MuBQAKEKwsRbBCJa+//rrGjBmj3XbbrSFHfo4//ngNHz5cM2bMSLoUAOhFsLIUwQr9mTdvniZPnizHcbRgwYKkyxmURYsWyXEcbbrpplq6dGnS5QCAJIKVtQhWKKe9vV3f/e53NW7cOL311ltJl1OVl156SUOGDNGZZ56ZdCkAIIlgZS2CFco55phjNGTIED3++ONJlxKLc845Ry0tLXrmmWeSLgUACFa2IlghzJVXXiljjK6++uqkS4lNe3u7tt56a6299tr66quvki4HQMYRrCxFsEKxRx99VK2trZo6dWrSpcTuzTff1MiRI3XUUUclXQqAjCNYWYpghXxvvvmmxo4dq5133lkdHR1Jl1MTV111lYwxeuCBB5IuBUCGEawsRbBCzvz587Xeeutp3XXX1fz585Mup2a6urq02267aeLEifrss8+SLgdARhGsLEWwgiR1dHRo55131tixYzVz5syky6m5jz76SOPGjdMPf/hDdXV1JV0OgAwiWFmKYAVJOvbYY9Xa2qpHH3006VLq5o9//KOMMbrllluSLgVABhGsLEWwwjXXXCNjTCY/B7kfap41a1bSpQDIGIKVpQhW2fbEE09oyJAhOvroo5MuJRG5H2reYYcdGvLnegA0LoKVpQhW2fX2229rhRVW0I477qj29vaky0nMo48+KmOMLrnkkqRLAZAhBCtLEayyacGCBXIcR5MnT9a8efOSLidxxx13HD/UDKCuCFaWIlhlT2dnp3bffXeNGTNGr7/+etLlpMKiRYu0/vrr80PNAOqGYGUpglX2nHTSSWptbdWf//znpEtJlZdeekmtra0644wzki4FQAYQrCxFsMqWG264QcYYXXbZZUmXkkr8UDOAeiFYWYpglR1PPfWUhg4dqiOOOCLpUlKrvb1dW221FT/UDKDmCFaWIlhlw7vvvqvx48dr++23z/Q3AKOYOXOmRo4cqSOPPDLpUgBYjGBlKYKV/b788kttuOGGWmuttTR37tyky2kIV155JT/UDKCmCFaWIljZraurS3vssYdGjx6tf/7zn0mX0zC6urq066678kPNAGqGYGUpgpXdfvGLX6ilpYWRl0GYPXu2xo0bJ9d1+aFmALEjWFmKYGWvm2++WcYYXXzxxUmX0rByP9R88803J10KAMsQrCxFsLLTM888o+HDh+vQQw9NupSGd8ABB2j06NH8UDOAWBGsLEWwss+sWbM0YcIEbbPNNtxFPAbz58/XyiuvzA81A4gVwcpSBCu7LFy4UBtvvLFWX311zZkzJ+lyrPHII4/IGKPf/OY3SZcCwBIEK0sRrOzR1dWlH/zgBxo1apSCIEi6HOsce+yx/FAzgNgQrCxFsLLHGWecoebmZt13331Jl2KltrY2fqgZQGwIVpYiWNnhtttukzFGF1xwQdKlWI0fagYQF4KVpQhWje+5557TMssso4MPPjjpUjLhV7/6lZqbm/X0008nXQqABkawshTBqrF9+OGHWmmllTRlyhQtWbIk6XIyob29XVtuuaXWWmstfqgZwKARrCxFsGpcbW1t2myzzbTqqqvq008/TbqcTJk5c6ZGjBjBDzUDGDSClaUIVo1r77331rLLLqu///3vSZeSSVdccYWMMbr//vuTLgVAAyJYWYpg1ZjOOussNTc36+677066lMzq6urSLrvsogkTJvBDzQAGjGBlKYJV47njjjvU1NSkc889N+lSMo8fagYwWAQrSxGsGsuLL76oESNG6IADDki6FPS44447+KFmAANGsLIUwapxfPTRR5o0aZK23HJLLV68OOlykGf//ffnh5oBDAjBylIEq8awaNEibbHFFlp55ZX18ccfJ10OisybN0+TJk3Sd77zHX6oGUAkBCtLEawaw7777quRI0fq5ZdfTroUlPHwww/zQ80AIiNYWYpglX7nnHOOmpqaNH369KRLQQW5H2r+xz/+kXQpAFKOYGUpglW63XXXXWpqatK0adOSLgURtLW1ab311tMmm2zCnfAB9ItgZSmCVXq98sorGjlypPbZZ5+kS8EAvPjii2ptbdXpp5+edCkAUoxgZSmCVTp98sknWmWVVbT55ptr0aJFSZeDAZo2bRo/1AygXwQrSxGs0mfx4sXaeuut9fWvf12zZ89OuhwMAj/UDKASgpWlCFbpc9BBB2nEiBF64YUXki4FVXjjjTc0YsQIHXHEEUmXAiCFCFaWIlily/nnn6+mpib5vp90KYgBP9QMoByClaUIVulxzz33qLm5Wb/85S+TLgUx4YeaAZRDsLIUwSodXn31VY0aNYof87XQ7NmzNXbsWO21117sWwC9CFaWIlglb86cOVp99dW16aabqq2tLelyUAO+78sYo5tuuinpUgCkBMHKUgSrZC1dulTf/va3NXHiRH3wwQdJl4Ma2m+//fihZgC9CFaWIlgl65BDDtHw4cP17LPPJl0KaowfagaQj2BlKYJVci666CIZY3TrrbcmXQrqJPdDzRdffHHSpQBIGMHKUgSrZNx///1qaWnRaaedlnQpqLOpU6dq2LBh/FAzkHEEK0sRrOpvxowZWm655bTnnnvyLbEM4oeaAUgEK2sRrOrrs88+05prrqmNNtqInzrJsBdeeEGtra1lRywJ3ID9CFaWIljVxrnnnqulS5cW/G3p0qXabrvtNGHCBL4ZBp199tlqbm7WX//614K/P/vss9pvv/0SqgpAvRCsLHDmmWdqnXXWKXgYY2SMKfjbRhttpC+++CLpchvWnDlzZIzRtttuW3C37cMPP1zDhg3T008/nWB1SIv29nZtscUWvT/UvHTpUp155plqaWnR6NGjGbUCLHLddddFOv+us846mjlzZtLlViVTweq1115TS0tL784s95g6dWrSpTa0u+66q3dbrrnmmpoxY4YuvfRSbhCJErkfat5uu+202WabFfTDOXPmJF0egJjMnz9fyy+/fMXz72677ZZ0qVXLVLCSpP3337/fnTp8+HDNnj076TIb2gknnBC6bU855ZSkS0PKdHZ2ar311gv9vDCyCdhl2rRpFYPVc889l3SZVctcsHr99df7HbVitKp6W2yxRei2vfDCC5MuDSny/vvva8cddyzbFxndBOxSadTKhtEqKYPBSio/asVoVfXa2to0ZMiQsh3n0EMPLZnUjuy59dZbNWbMmH7/53rmmWcmXSaAmPU3amXDaJWU0WD1xhtvhI5aMVpVvccee6ziUO8222zD/JkM+/TTT7XTTjtV/Jzsu+++SZcKIGblRq1sGa2SMhqsJOmAAw5gtKoGolxDnzJlih5//PGkS0XCHnzwQW244YZlPyebb7550iUCqIGw84Qto1VShoNV8agVo1Xx2HnnnUNPkkOGDNF+++2n559/PukSkSIdHR264YYbNGnSpJLPzPLLL590eQBqoHjUyqbRKinDwUqSDjzwQEarYtTZ2anRo0cXnBzHjRunU089VR9++GHS5SHF2tradO6552q55ZYr+PzMnTs36dIA1ED+qJVNo1VSxoPVzJkz1dLSwmhVTF555ZXejrL++uvrqquuUltbW9JloYHMmTNHP/vZz9Ta2ipjjJ599tmkSwJQA7lRK9tGq6SMByup+27gjFbF4/LLL9cuu+yiBx98MOlS0OBmzpwp13V1yy23JF0KgBqZNm2adaNVUoMEq0qToRvpkWZJb5usbOcsSfpzwGcKqJ2k+2Ra+3dDHC1sOailvR1pry8qW9phA1v2hS3tAOJkS78gWDWwtLcj7fVFZUs7bGDLvrClHUCcbOkXBKsGlvZ2pL2+qGxphw1s2Re2tAOIky39gmDVwNLejrTXF5Ut7bCBLfvClnYAcbKlXxCsGlja25H2+qKypR02sGVf2NIOIE629AuCVQNLezvSXl9UtrTDBrbsC1vaAcTJln5BsGpgaW9H2uuLypZ22MCWfWFLO4A42dIvCFYNLO3tSHt9UdnSDhvYsi9saQcQJ1v6BcGqgaW9HWmvLypb2mEDW/aFLe0A4mRLvyBYNbC0tyPt9UVlSztsYMu+sKUdQJxs6RcEqwaW9nakvb6obGmHDWzZF7a0A4iTLf2CYNXA0t6OtNcXlS3tsIEt+8KWdgBxsqVfEKwaWNrbkfb6orKlHTawZV/Y0g4gTrb0C4JVA0t7O9JeX1S2tMMGtuwLW9oBxMmWfkGwamBpb0fa64vKlnbYwJZ9YUs7gDjZ0i8IVg0s7e1Ie31R2dIOG9iyL2xpBxAnW/oFwapqvlxjZFw/xteMJu0fwsHVF8hzjIwp93DkuJ78IPZyy0r7ds6SePZFIN915OR9rhzHlR9Ige+qHl2ZzxRQqmbnDMeV6/mq12mDYFUt3+3Zea7qHa3SfnCuqr7ACw2sge/1nBCdupwApfRv5yypel/4bvfnx3HlB3mH2cCX5zrdIcur/eGXzxRQqibnjLy+bYyjOnRvglV1AnmOU9cDcr60H5yrq6+fkcCgJ1w5Xl3+B5L27Zwl1R54K31ufJdgBSSlZucMdY9G12sQhGBVDd+V4/rq3aF1OtHnpP3gTLBC3KrZF77bfWmg/5FOX24dhkL5TAGlahmspL5jQK2n7hCsBq1ntKrnzB7toB2vtB+ca9JJAl+uU99tnfbtnCWD3he5MJ7AJfswfKaAUrUOVvX6TznBarACT07+zsntsDomq7QfnGPpJGUmI9bzqmvat3OWDHpf5C4D1HlUuRw+U0Cpmger3vNKbf+DRbAaJN8tHjHJfTOhfv8jTvvBuRadJPC93hErp04hNu3bOUsIVoC9CFZlXi/WV6uRqhvde1kh/FGvSexpPzjXrpP0fb2Wr8ZnC5cCAXtxKbDM68X6ajVSbaMDzykTnuo7iT3tB+eafsPD46vxWTT4fZEL4/W9jFwOnymgVL0mr9f6vEGwGjBfrlP+f731nMSe9oNzLTsJ2zmbqtoXUS4HBnwrEEgKt1so83qxvlqNVPO/Xt+tMNSYv/Nq/D/jtB+ca3GzNwXdd82u53yZtG/nLIljtLn7s+PKK+iggQLfLfxCSg3xmQJKxXXOKOjZ+TcIdWp/XpYIVgNQ/C210tTbe9Cu03yrtB+cB1dfpZ8nMDKO09A/T4DBi+cbvd0HWqf4M+UHfKaABNXmnNH9kzZeHX8HjWDVwNLejrTXF5Ut7bCBLfvClnYAcbKlXxCsGlja25H2+qKypR02sGVf2NIOIE629AuCVQNLezvSXl9UtrTDBrbsC1vaAcTJln5BsGpgaW9H2uuLypZ22MCWfWFLO4A42dIvCFYNLO3tSHt9UdnSDhvYsi9saQcQJ1v6BcGqgaW9HWmvLypb2mEDW/aFLe0A4mRLvyBYNbC0tyPt9UVlSztsYMu+sKUdQJxs6RcEqwaW9nakvb6obGmHDWzZF7a0A4iTLf2CYNXA0t6OtNcXlS3tsIEt+8KWdgBxsqVfEKwaWNrbkfb6orKlHTawZV/Y0g4gTrb0C4JVA0t7O9JeX1S2tMMGtuwLW9oBxMmWfkGwamBpb0fa64vKlnbYwJZ9YUs7gDjZ0i8IVg0s7e1Ie31R2dIOG9iyL2xpBxAnW/oFwaqBpb0daa8vKlvaYQNb9oUt7QDiZEu/yGywsuWRZklvm6xs5yxJ+nPAZwqonaT7ZFr7N0cLAACAmBCsAAAAYkKwAgAAiAnBCgAAICYEKwAAgJgQrAAAAGJCsAIAAIgJwQoAACAmBCsAAICYEKwAAABiQrACAACIyf8DFBNwi1G4XR8AAAAASUVORK5CYII=;" vertex="1" parent="1">
          <mxGeometry x="350" y="-0.5" width="418" height="287" as="geometry"/>
        </mxCell>
        <mxCell id="SjMGYK_2kaPN_tZI_Yqk-10" value="" style="shape=image;verticalLabelPosition=bottom;labelBackgroundColor=#ffffff;verticalAlign=top;aspect=fixed;imageAspect=0;image=data:image/png,iVBORw0KGgoAAAANSUhEUgAAApQAAAGsCAYAAABjDjdhAAAgAElEQVR4nO3dMej0aJ3A8bgHK56NWgiywhVXXBFFUGtXOXALOS1kbk8Q1kpcLUQE69S2FhYW1maxuSus1BPhrLxqvANXrtBtZVsF2eeKeefd/8wkmUwykye/J58PhGXffyaTmc3z5LvJf+atEgAAzFDl3gEAAGITlAAAzCIoAQCYRVACADCLoAQAYJbOoKyqymKxPHABgJL0BiXwGMYXAKURlLAw4wuA0ghKWJjxBUBpBCUszPgCoDSCEhZmfAFQGkEJCzO+ACiNoISFGV8AlEZQwsKMLwBKIyhhYcYXAKURlLAw4wuA0ghKWJjxBUBpBCUszPgCoDSCEhZmfAFQGkEJCzO+ACjN3YNy39Spqpu0n7yF9VvLazzfj7XsF8MEJQClEZQTrOU1CsqYBCUApYlxy7vdparapXYrzzvSrIBc+Wsr2erGFwDMJCjX+LwjCcqYVje+AGCmh9/ybndVqpv94c+r6tlSp+a8gvZNqp///LjOPjX10z87LPWzB19su27SPh0eU58/QV9AtbvT7T/ZRt/z9oZc57bOVxn5fkx4ry/2a8J7epMRr5dLghKA0iwSlOfBcoipp3HXpt1Q1PTEYNe20w1BediPgZjred6uoOza1mH/Th8/7v0YZzgop72nNz33xBDeOkEJQGmWCcpde75Sqp/GyPm/nxsKyvNtjw7KQ3BdPHzE814GZd+2Lvdl1Psx0mBQTnxPxxnx3tFLUAJQmnUEZXr3yl3n7ddHBOWYiBsblAPbOt/HxYIyTXtPRz7xpP3lQFACUJrVBOXpzw4R9PxhgrLT6K8NuuE9HfnEgnIGQQlAadYXlIcVTqPwpqDs+fOt3fK+XHvUezqOW95zCEoASrPOoHx2Re35w87/fWjbhx+cfWDk2Sebz9a9+sGSnued/aGcHEE58j296bldpZxEUAJQmnUE5cXX21zesj75mp1n2+sNyvP1qxvW6/wk+Ok25n5t0HIfyrn9Pb35+QfeO7oJSgBKE+OLzaEgxhcApRGUq3P4/cTzLx5f5gvEcz73dhhfAJRGUMLCjC8ASiMoYWHGFwClEZSwMOMLgNIISliY8QVAaQQlLMz4AqA0ghIWZnwBUBpBCQszvgAojaCEhRlfAJRGUMLCjC8ASiMoYWHGFwClEZSwMOMLgNIISliY8QVAaQQlLMz4AqA0gjK473znO+lb3/pW7t3gBsYXAKXpDUqLxfK4BQBK4swW3Pve97704osv5t4NAGDDBGVwghIAyE1QBicoAYDcBGVwghIAyE1QBicoAYDcBGVwghIAyE1QBicoAYDcBGVwghIAyE1QBicoAYDcBGVwghIAyE1QBicoAYDcBGVwghIAyE1QBicoAYDcBGVwghIAyE1QBicoAYDcBGVwghIAyE1QBicoAYDcBGVwghIAyE1QBicoAYDcBGVwghIAyE1QBicoAYDcBGVwghIAyE1QBicoAYDcBGVwghIAyE1QBicoAYDcBGVwghIAyE1QBicoAYDcBGVwUYKyqiqLxfLABSAns1BwkYISeAzjC8jNLBScoASMLyA3s1BwghIwvoDczELBCUrA+AJyMwsFJygB4wvIzSwUnKAEjC8gN7NQcIISML6A3MxCwQlKwPgCcjMLBScoAeMLyM0sFJygBIwvIDezUHCCEjC+gNzMQsEJSsD4AnIzCwUnKAHjC8jNLBScoASMLyA3s1BwgrLbvm1Su1/0KefZt6kJtcOsiaAEcjMLBZczKP/93/89vfXWW6PWXe6Et09NXaW66Y6zfVOnqm7SULrtmzpVVXWx9G1zWJt2Ix/b7q7vW+e+PnnMmNd3bRulKvl1CkogN7NQcDmD8rXXXkvvfe970ze/+c30pz/9aXDdZU54+9TU9WC8jQ7Ki3UOoVpVdbqlKw/bqlNd7VI7ev3x0SMoxyv5dQpKIDezUHC5g/J49e5aWC5xwmt3168ETg/KJz8bGYfHCN21x3+OelBqd1Wqxq7ctX9riKZ2d8P7VNBzZyIogdzMQsGtJSivheXDT3j7ZtRVwLlB+fxK5ZjgexI2t4Vem3Y3Xgl9vneCUlACZGAWCm5tQfk0LF9//fXnYfnoE96+qUdF3vygHB9tJ1ca902qb4jEqa/nHre8j1d6T3+XtGPf902qT/6716nZH381oP/3Ty+2Xzdp3/e7r31x2O5On+PJNvqeu/O96dzO+VONfD/GGvGctxKUQG5moeDe9773paqq0ic+8YnFl76YfLq8+OKL6fXXX3/4CW/M7e6U7hOU466AHT6M824TDn9YqPM5RoTGo4LyPAIvb/Vf+bDRwHvUtf3e96djO4d9GQi6nufufK/OtnPYt9PHjns/xrm67xMJSiA3s1BwH/zgB9Pf//3fp29/+9uLL2OC8mMf+1hq23ZzQdl/NWxkhOQOyvOro+dXWK9dcb0WlBdXX8cG5Xmoj3/u09fZt53L/Rj1fowyYt8nEpRAbmah4F566aX04Q9/OMtzD93yPobkO++8k1Ja5pb3UkF5fRvdt16Py5igyH3Le0xAHa/cdX6l0qOCckzIjQnKge2c79/dgnJShI4jKIHczELBrS0oP/7xj6c33njjeUgeLfKhnAlX9G5fZ8St63bXe1tz3Ce4x98ezxmUpz87i2VBeUlQAgUzCwW3lqDsC8mjLX1tULsb+KDFQGze8hx9+5olKA8rnAbhzUHZ8+dueY8iKIHczELB5Q7KayF5tMwJ7/rfSvP4Lza/tg/DP9+PCM6hfc0WlM+uUj5/2Pm/P9F7lfbitXd/RdPVD7b0PPesD+XcJSh9KAcol1kouJxB+fvf//5qSB4td8Jr066uUr1rB64wdv9u48nXywz8fMjoK5i9V9B2E/4mnlwfyhl+f07ex2u3kLseU92wXucnwU+3Medrg+4VlGP2fQpBCeRmFgouZ1DeYtkT3j61TZPa7N/ufYN9m5qmO4LhGkEJ5GYWCk5Q0u1wa33wa53W8DfqFCH/e218AbmZhYITlIDxBeRmFgpOUALGF5CbWSg4QQkYX0BuZqHgBCVgfAG5mYWCE5SA8QXkZhYKTlACxheQm1koOEEJGF9Abmah4AQlYHwBuZmFghOUgPEF5GYWCk5QAsYXkJtZKDhBCRhfQG5moeAEJWB8AbmZhYITlIDxBeRmFgouUlBaLJbHLQA5mYWCixKUAEC5BGVwghIAyE1QBicoAYDcBGVwghIAyE1QBicoAYDcBGVwghIAyE1QBicoAYDcBGVwghIAyE1QBicoAYDcBGVwghIAyE1QBicoAYDcBGVwghIAyE1QBicoAYDcBGVwghIAyE1QBicoAYDcBGVwghIAyE1QBicoAYDcBGVwghIAyE1QBicoAYDcBGVwghIAyE1QBicoAYDcBGVwghIAyE1QBicoAYDcBGVwghIAyE1QBicoAYDcBGVwghIAyE1QBicoAYDcBGVwghIAyE1QBhclKKuqsljuvgCwDmbk4CIFJdyTYwpgPczIwQlKtsoxBbAeZuTgBCVb5ZgCWA8zcnCCkq1yTAGshxk5OEHJVjmmANbDjBycoGSrHFMA62FGDk5QslWOKYD1MCMHJyjZKscUwHqYkYMTlGyVYwpgPczIwQlKtsoxBbAeZuTgBCVb5ZgCWA8zcnCCkq1yTAGshxk5OEHJVjmmANbDjBycoGSrHFMA62FGDk5QslWOKYD1MCMHlzMov//976c33ngjvfPOO1fXnXPy3zd1quom7Xv+nXdt6b0RlADrYUYOLmdQvvbaa6mqqvTxj388tW07GJaCchlbem8EJcB6mJGDW0NQHpePfexjvWF5z5P/lqKJfoISYD3MyMGtKSiHwlJQcm+CEmA9zMjBvfTSS+lDH/pQevvttxdfvvSlL3UG5dOw/MlPfpLeeeedddzybncn+1c3725h39SpqurUnGy0TbuqStWufbKJKtVNm5r66WvdpTadOqy3f7bd6nR/B/bj2c6k+uS9fLJfQz/re2/Onq/rvbvY345t32TEc84lKAHWw4wc3EsvvTQYdWtYPvnJT2YPykMoPQ2/QyxeROWT7ba7yxBqd5ehdfiz06g8/NllLF7fj8v9Sr3r9rzO8/dq4v5e7us43XF+f4ISYD3MyMF97nOfS5/85CfTG2+8sfjy/ve/fzAkX3zxxfT666+nP/3pT5mDsk27jsC53M7+cOVx1/bGVLs7vWL59HFPY6x7vRH7sW9S3RdjQz/rfE2HAL3YjbH7O+L5LvU95/0JSoD1MCMH9+Uvfzl94QtfyPLcfb9D+TQkj7IG5cVt4qFbsc9uc/eEVHcoXv55f6Bd34/j1cKuK5xDPzs8xbg4Hb+/NwblpAidRlACrIcZObg1BeUxJP/4xz9erJs/KEfeun0SfV1X2eYH5Q23kIf2pednghKAHMzIwa0hKF988cX0jW98ozMkj/Lf8h5zG/bJreB2d8Mt78vtj13vusvb00M/c8sbgBzMyMHlDMqvf/3rV0PyKPeHcro+TNO5zj0/lNN3JfOWSHt2JbIz0Dp+NutDOXcJSh/KAdgiM3JwOYPyr3/96+h1cwfl88ed/e7i8SpdV2Q9/5DOeWTumtOvDer5Gp6uoLy2H12/ZznqZ0PvzcivDbpXUHa/xts/LX6NoARYDzNycDmD8halnPyHQpFllXJMAZTAjBzctoPy+InsgeXOX6i93aBc/r2+RlACrIcZObhtB+XythuU61PKMQVQAjNycIJyWYJyPUo5pgBKYEYOTlCyVY4pgPUwIwcnKNkqxxTAepiRgxOUbJVjCmA9zMjBCUq2yjEFsB5m5OAEJVvlmAJYDzNycIKSrXJMAayHGTk4QclWOaYA1sOMHJygZKscUwDrYUYOTlCyVY4pgPUwIwcnKNkqxxTAepiRgxOUbJVjCmA9zMjBRQpKi+XeCwDrYEYOLkpQMs4HPvCB9I//+I+5dwMAbiIogxOUZRGUAEQkKIMTlGURlABEJCiDE5RlEZQARCQogxOUZRGUAEQkKIMTlGURlABEJCiDE5RlEZQARCQogxOUZRGUAEQkKIMTlGURlABEJCiDE5RlEZQARCQogxOUZRGUAEQkKIMTlGURlABEJCiDE5RlEZQARCQogxOUZRGUAEQkKIMTlGXZUlBWVWWxrG4BpjF6ghOUZdlaUMKaOCZhOqMnOEFZFkEJ+TgmYTqjJzhBWRZBCfk4JmE6oyc4QVkWQQn5OCZhOqMnOEFZFkEJ+TgmYTqjJzhBWRZBCfk4JmE6oyc4QVkWQQn5OCZhOqMnOEFZFkEJ+TgmYTqjJzhBWRZBCfk4JmE6oyc4QVkWQQn5OCZhOqMnOEFZFkEJ+TgmYTqjJzhBWRZBCfk4JmE6oyc4QVkWQQn5OCZhOqMnOEFZFkH5OPu2Se1+9kZSM3sjrJWghOmMnuAEZVkiB+Xbb7+d9vvxsbXcyXufmrpKdXOfEGx3darqJsnK8ghKmM7oCU5QliVyUL755pvpPe95T9rtdqPCcpmT9z41dd0bk/umTlVVXSzX4nPfzIvK88fP3V7x9k2qqzrd6f8JeglKmM7oCU5QliV6UB6D7IUXXkj/+q//OhiWS5y8291wHHaHXJt2VZWqXXt129fWGfu8gvIKQQmrZ/QEJyjLUkpQnofl7373u4v1H37y3jeprnZpKPl6Q67dperKYw/heZ/IEZRXCEpYPaMnOEFZltKCcigsH33y3jf11SuI84Jy3HOMISivEJSwekZPcIKyLB/4wAdSVVXp1VdfDbd86lOf6g3Kp2H56quvpt/97ncPP3lfu92d0vAt71Ef4ml3k0Lwbre8293pe9yxjcP70KamfvrfoieWz7Z3/h4c39Pnv3v67Pkufxf1Mv4uHtuzXtd+7BpBCWtn9AQnKMvy0Y9+NH3kIx9J//zP/xxu+Yd/+IerQVlVVfrsZz+bfvWrX60nKDv2cfRFx4xBedj308hqd5exePiz6+sdtvf0zy7D+vC4EbHd7nqe8/Sxl8859LoEJayZ0ROcoCzLyy+/nF577bXcuzHJ0C3vY0j+53/+5/P1l7jlPfXT2l3B1fv4Cbe85wflIfYun/ryK5K6Pzx0vl7374Oe79f4DyKN3I+LW9k9r8stb1g9oyc4QVmWEoPyc5/7XPrVr351sf4iH8q5Emn9ITfmtvf077ecHZQDgXUebn0RePLn+ybVff8zMCYoex5/c1D2vS5BCatn9AQnKMtSUlD2heTRer82KKUxsdh1u3asdQbl9dfSva2u+J54hVJQQlhGT3CCsiwlBOW1kDxa5uQ9fKXx2hXKvru7+47fEbxF/lve548ffr2D2+qMPbe8YWuMnuAEZVkiB+Wf//znUSF5tNzJu027ukr1rr0Itu6QO8RQX+AdHrObFTdr/FDOmA++jL1Cefyw0+1B2X3l14dyYP2MnuAEZVkiB+Wtlj1571PbNKnt+tDJLX/14r5NTXMZpjfvzcJfG1TtmtOvDRqK5Vt/D/LwwNPfoXz2fFOCsms/6qa525fIDxGUMJ3RE5ygLIug5N7m/BWRW+OYhOmMnuAEZVkE5dY9+3vEh5Ybr2QKyvEckzCd0ROcoCyLoOTeBOV4jkmYzugJTlCWRVByb4JyPMckTGf0BCcoyyIoIR/HJExn9AQnKMsiKCEfxyRMZ/QEJyjLIighH8ckTGf0BCcoyyIoIR/HJExn9AQnKMsiKCEfxyRMZ/QEJyjLIighH8ckTGf0BCcoyyIoIR/HJExn9AQnKMsiKCEfxyRMZ/QEJyjLIighH8ckTGf0BCcoyyIoIR/HJExn9AQnKMsiKCEfxyRMZ/QEJyjLsrWgtFjWtgDTGD3BCcqybCkoASiHoAxOUJZFUAIQkaAMTlCWRVACEJGgDE5QlkVQAhCRoAxOUJZFUAIQkaAMTlCWRVACEJGgDE5QlkVQAhCRoAxOUJZFUAIQkaAMTlCWRVACEJGgDE5QlkVQAhCRoAxOUJZFUAIQkaAMTlCWRVACEJGgDE5QlkVQAhCRoAxOUJZlS0FZVZXFsroFmMboCU5QlmVrQQlr4piE6Yye4ARlWQQl5OOYhOmMnuAEZVkEJeTjmITpjJ7gBGVZBCXk45iE6Yye4ARlWQQl5OOYhOmMnuAEZVkEJeTjmITpjJ7gBGVZBCXk45iE6Yye4ARlWQQl5OOYhOmMnuAEZVkEJeTjmITpjJ7gBGVZBCXk45iE6Yye4ARlWQQl5OOYhOmMnuAEZVkEJeTjmITpjJ7gBGVZBCXk45iE6Yye4ARlWQQl5OOYhOmMnuAEZVkiB+U777xz0/pO3qyNYxKmM3qCE5RliRyUb775ZvrMZz6Tfv7zn49a/1En731Tp6pu0v4hW1/+OXO8nim69jPKvh8JSpjO6AlOUJYlelBWVZWqqhoVloIy/7bvSVDCthk9wQnKspQSlMfl5ZdfTr/4xS861y/p5B0tnFK7S1W1S+0dNzn7PXjAPt2qpGMSlmb0BCcoy1JaUA6FZUknb0EpKGHrjJ7gBGVZXn755fRP//RP6de//nW45cc//nFvUD4Ny1/+8pcppZkn732T6pNt16nZH390Gjbtrkp1s0/t7un6z8LlbDt1c5pDh8e2qak7HnuyOx0x1e5OXvv5tse/1O7Xs2/qztc//B7tz17L6b5dbPuGQBx1y3vCPi1JUMJ0Rk9wgrIsL7/88tUoi7688MIL6Yc//OGMk3ebdgPB0RVg54Hyblw+icNnsbN7UouH9U5j7fBnp1F5/pyHIHu6zvA+Dxnzem5+vp6rgV3bnrqfl382bZ+WJChhOqMnOEFZlrfeeiu9+eabIZef/exnV0Py3/7t39L//M//pJRmnLz3Taq7rsg9/3FHgO3OMqUzXg5Xyi7C8/yxHetdhtPl/k29JTzq9Zy/J1feo8GgvHi90/bz4s8m7tOSBCVMZ/QEJyhZi77foTwPyaM5J++nt6/Pr3g9Pigv//wynHrCeqmgTMPvUZagnLhPSxKUMJ3RE5ygZC3Og/KFF15IX/nKVy5C8uguJ+8n8XbsoHUE5f3CaGpQnv7s9D3KFZRT9mlJghKmM3qCE5SsxTEojyH5v//7v4Pr3+/kfRqCjw/Kw+8CPv3jrt8VnNhlF2YH5WGF09eWOyhv2KclCUqYzugJTlCyFv/3f/83KiSP7nbyPvswzd2DcsKHcroeN/3l3SEozz9w1PEBpN5tT9zPvj+7dZ+WJChhOqMnOEFJVPM+lNP/FTP3v0LZnH6tTUcg9cbUwH6Of7lTP5Qz/Nwn+/dse4//UM7t+7QkQQnTGT3BCUqiinDynhNYxBPhmIS1MnqCE5REFeHk/bigPPye5eB3dq7ib96Jsp/3EeGYhLUyeoITlEQV4eTtCuW2RDgmYa2MnuAEJVFFOHkLym2JcEzCWhk9wQlKonLyZm0ckzCd0ROcoCQqJ2/WxjEJ0xk9wQlKonLyZm0ckzCd0ROcoCQqJ2/WxjEJ0xk9wQlKonLyZm0ckzCd0ROcoCQqJ2/WxjEJ0xk9wQlKonLyZm0ckzCd0ROcoCQqJ2/WxjEJ0xk9wQlKonLyZm0ckzCd0ROcoCQqJ2/WxjEJ0xk9wQlKonLyvo+//OUv6W9/+1vu3SiCYxKmM3qCE5REVVWVxbK6BZjG6AlOUMK2/d3f/V360Y9+lHs3gI0TlMEJStg2QQmsgaAMTlDCtglKYA0EZXCCErZNUAJrICiDE5SwbYISWANBGZyghG0TlMAaCMrgBCVsm6AE1kBQBicoYdsEJbAGgjI4QQnbJiiBNRCUwQlK2DZBCayBoAxOUMK2CUpgDQRlcIIStk1QAmsgKIMTlLBtghJYA0EZnKCEbSslKKuqslgsK16ujuEF5gkeSFDCtpUUlMA6CcoNEJSwbYISeDRBuQGCErZNUAKPJig3QFDCtglK4NEE5QYIStg2QQk8mqDcAEEJ2yYogUcTlBsgKGHbBCXwaIJyAwQlbJugBB5NUG6AoIRtE5TAownKDRCUsG2CEng0QbkBghK2TVACjyYoN0BQwrYJSuDRBOUGCErYNkEJPJqg3ABBCdsmKIFHE5QbIChh2wTlNPu2Se1+0afMY9+mZhMvlEcSlBsgKGHb1hyUP/3pT9Nbb701at3lgnKfmrpKdTMmstq0q/rX3Td1qqrqYrnX+ldfSdf2du3lq9jVqaqbNDUr983p48//fco2SlXq6xSUGyAoYdvWHJSvvvpqeu9735u+9a1vXQ3LZYJyn5q6Hh1whzioU13t0mWm9cXDIVirqk7nT3Pr+gM7luqquilc5oSOoByv1NcpKDdAUMK2rT0oj1fOroXlEkHZ7m65GngIvV17/GfHGgPxcLh6eBqit67f8yoGr5oOPnLXfQXzVquJpnY38j0r5HkzEpQbIChh26IE5bWwfHhQ7pveK42dnkRDX0ANh9WzK49PAu7W9btfxpyYa9PuliuhD9mHOxKUixGUGyAoYduiBWVfWD46KPdNfdPVuZOrefsm1aNvYff//Nb1O9a44fc/B57jxquUj7jlfbxafPp7oB2xe7y9f7LO8dcE+n8X9WL7dZP2fe9fVyC2u9PtP3n80PN2vjed2zrfhZHvx1gjnvMWgnIDBCVs2/OTWl2vbumLya6wfHRQ3na7+3Bb+d3u6g6Rq2F1Fiq3rn+p//b7aO1udgzeKyg7Y+zk9V+5vT/wfnVtvzfIu/47DcXcwPN2vldn2zrs2+njx70f41zd/wkE5QYISti2733ve+m73/3uKpcxQfnpT386/cd//MeqgrL/KtP434nsesz8oDwP3QnWFJTnL+T8SnDPleHnrgXlxRs1JihHvMejg7JvW5f7Mer9GOUOx0gHQbkBghJYq6Fb3seQPFrilve4oOy+rXlcnp6o3fKevo2xAXW8ctf59UqPCMoxETc2KAe2db5/dwvKSRF6naDcAEEJrFVXUJ6H5NEiH8oZE0Htrvd24flJf8yHbK7+ft3A+t0vY84HYqYFac6gPP3ZWdQLyq4dEJRMIyiBtXoalH0hebSWrw1qdwMfYDiLzSxfG/QsrKbc0pz1O3m5g/KwwmkQ3hyUPX/ulvdVgnIDBCWwVq+++urVkDxa5ovNr32H420/z/bF5sdP8N5QDfuBK69XH7uWoDyP6YG47v3OzYv3oefrnW7Zj4HXedOHcu4SlD6Uw0SCElirP/zhD6PXXe6vXmzTrq5SvWu7v1fyyhW8pzGQ+69efPr7hUNfD3OInN3kwMj7oZzh9+rkPb12C7nrMT1hfvnfquNqc8fj53xt0L2Ccsz+30pQboCgBEqwXFCmlNI+tU2T2uzfzL2AfZua5jKe4RaCcgMEJVCCZYOS+zj8CsDgV0Ot4W/UKULe91pQboCgBEogKGG9BOUGCEqgBIIS1ktQboCgBEogKGG9BOUGCEqgBIIS1ktQboCgBEogKGG9BOUGCEqgBIIS1ktQboCgBEogKGG9BOUGCEqgBIIS1ktQboCgBEogKGG9BOUGCEqgBIIS1ktQboCgBEogKGG9BOUGCEqgBIIS1ktQboCgBEogKGG9BOUGCEqgBFVVWSyWFS9Xx/AC8wQPJCgBgNwEZXCCEgDITVAGJygBgNwEZXCCEgDITVAGJygBgNwEZXCCEgDITVAGJygBgNwEZXCCEgDITVAGJygBgNwEZXCCEgDITVAGJygBgNwEZXCCEgDITVAGJygBgNwEZXCCEgDITVAGFyUoq6qyWCwrXgDmMIsEFykogXUyPoG5zCLBCUpgLuMTmMssEpygBOYyPoG5zCLBCUpgLuMTmMssEpygBOYyPoG5zCLBCUpgLuMTmMssEpygBOYyPoG5zCLBCUpgLuMTmMssEpygBOYyPoG5zCLBCUpgLuMTmMssEpygBOYyPoG5zCLBCUpgLuMTmMssEpygBOYyPoG5zCLBCcpu+7ZJ7X7Rp8xn36ZmMy+WRxCUwFxmkeByBuXbb789et3lTlj71NRVqiwCvtIAAASBSURBVJttBVa7q1NVN2lbr5p7EZTAXGaR4HIG5de+9rX0pS99Kf33f//31XWXOWHtU1PXN8Rkm3ZVf3zumzpVVXWx3Gv9e29j30yLyvPHTdnO1OeOptTXKSiBucwiweUMytdee+158Hzxi18cDMslTljtbkK81XWqq11qe39+Hg+HK6BVVafzp7p1/f59mr6Ndlelatf1asY/p6DsV+rrFJTAXGaR4NYSlNfC8uEnrH3TG4Y9D0hNXaVde/xn1yb74+FwJfH0+W5dv/tlzN1Gm3Yj43XKPiyq3Y16z4p53owEJTCXWSS4tQXlcfmXf/mX9Nvf/vb5uo8+Ye2b+rYrc0+ioS+ghsPq2VXDJ8956/q9r+Me27jxKuX4fViQoFyMoATmMosE9+UvfzlVVZV+8IMfLL70xWRXWD76hHXr7e6TW8P7JtWjb2H3//zW9aesMyr22t1NQfiIW97H/x6nvxPaceV036T65JipU7M/3uLv/z3Si+3XTdr3fSCrKxDb3en2nzx+6Hk735vObZ3vwsj3Y6wRz3kLQQnMZRYJ7qtf/Wp64YUX0vvf//7FlzFBWVVVeuWVV1YWlIcP47x7Ea87RK6G1Vmo3Lp+l3tsYy1B2RljJ/s+/KGoodfatf3eT/h3/XcairmB5+18r862ddi308ePez/Gubr/EwhKYC6zCJMN3fKuqip9/vOfT//1X/+VUlrmlvfYoOy/yjT+dyK7HrOWoLz1lvfDgvJ8H86vBPdcGX7uWlBevMYxQXn+PxO3Pe/p6+zb1uV+jHo/Rhmx/xMISmAuswiT9QXl05A8WuRDOaMiqPu25nF5eqKOecv79u/hzBaU6d0rd51fjfSIoBwTcWODcmBb5/t3t6CcFKHXCUpgLrMIk50H5SuvvJJ+85vfdK67mq8Nane9twvPT/pjPiBz9ffrBtbvXGvmNqbcRs0ZlKc/O4t6Qdm1A4ISWCWzCJMdg3IoJI+WOWFd+Z289OzE3hdLZ7EZ7WuD9gOxfMtzZgnKwwqnQXhzUPb8uVveVwlKYC6zCJP96Ec/uhqSR8udsNq0q6tU79qOILoWnKc/j/TF5ofH7SZduVpNUD67Svn8Yef//kTvF7hfRHXP1zvdsh8Dr/OmD+XcJSh9KAdYJ7MIi1j2hLVPbdOktiv4rlwlfBoDYf7qxX2bmqYroG94zmwfyhl+nSfvx7VbyF2PqbrXu3yfO642dzx+ztcG3Ssox+z/rQQlMJdZhEU4YcF6GZ/AXGYRFuGEFdHhVwAGv2d0DX+jThHyvtfGJzCXWYRFOGHBehmfwFxmERbhhAXrZXwCc5lFWIQTFqyX8QnMZRZhEU5YsF7GJzCXWYRFOGHBehmfwFxmERbhhAXrZXwCc5lFWIQTFqyX8QnMZRZhEU5YsF7GJzCXWYRFOGHBehmfwFxmERbhhAXrZXwCc5lFWIQTFqyX8QnMZRZhEU5YsF7GJzCXWYRFOGHBehmfwFxmERZRVZXFYlnxAjCHWQQAgFkEJQAAswhKAABmEZQAAMwiKAEAmOX/ARNuCbcLyvMOAAAAAElFTkSuQmCC;" vertex="1" parent="1">
          <mxGeometry x="340" y="390" width="440" height="285" as="geometry"/>
        </mxCell>
        <mxCell id="SjMGYK_2kaPN_tZI_Yqk-13" value="" style="endArrow=classic;html=1;entryX=0.001;entryY=0.42;entryDx=0;entryDy=0;entryPerimeter=0;exitX=1;exitY=0.5;exitDx=0;exitDy=0;" edge="1" parent="1" source="SjMGYK_2kaPN_tZI_Yqk-1" target="SjMGYK_2kaPN_tZI_Yqk-8">
          <mxGeometry width="50" height="50" relative="1" as="geometry">
            <mxPoint x="80" y="196.66666666666666" as="sourcePoint"/>
            <mxPoint x="260" y="380" as="targetPoint"/>
            <Array as="points">
              <mxPoint x="280" y="120"/>
            </Array>
          </mxGeometry>
        </mxCell>
        <mxCell id="SjMGYK_2kaPN_tZI_Yqk-18" value="词法分析器" style="text;html=1;resizable=0;points=[];align=center;verticalAlign=middle;labelBackgroundColor=#ffffff;" vertex="1" connectable="0" parent="SjMGYK_2kaPN_tZI_Yqk-13">
          <mxGeometry x="-0.3086" relative="1" as="geometry">
            <mxPoint x="8.5" y="-10" as="offset"/>
          </mxGeometry>
        </mxCell>
        <mxCell id="SjMGYK_2kaPN_tZI_Yqk-19" value="语法分析器" style="text;html=1;resizable=0;points=[];align=center;verticalAlign=middle;labelBackgroundColor=#ffffff;" vertex="1" connectable="0" parent="1">
          <mxGeometry x="250.16666666666674" y="143" as="geometry">
            <mxPoint x="8.5" y="-10" as="offset"/>
          </mxGeometry>
        </mxCell>
        <mxCell id="SjMGYK_2kaPN_tZI_Yqk-20" value="" style="endArrow=classic;html=1;entryX=0.5;entryY=0;entryDx=0;entryDy=0;exitX=0.5;exitY=1;exitDx=0;exitDy=0;" edge="1" parent="1" source="SjMGYK_2kaPN_tZI_Yqk-8" target="SjMGYK_2kaPN_tZI_Yqk-10">
          <mxGeometry width="50" height="50" relative="1" as="geometry">
            <mxPoint x="210" y="130" as="sourcePoint"/>
            <mxPoint x="360.4180000000001" y="130.03999999999996" as="targetPoint"/>
            <Array as="points"/>
          </mxGeometry>
        </mxCell>
        <mxCell id="SjMGYK_2kaPN_tZI_Yqk-21" value="&lt;div&gt;ST树2IL树&lt;/div&gt;" style="text;html=1;resizable=0;points=[];align=center;verticalAlign=middle;labelBackgroundColor=#ffffff;" vertex="1" connectable="0" parent="SjMGYK_2kaPN_tZI_Yqk-20">
          <mxGeometry x="-0.3086" relative="1" as="geometry">
            <mxPoint x="0.5" y="7.5" as="offset"/>
          </mxGeometry>
        </mxCell>
        <mxCell id="SjMGYK_2kaPN_tZI_Yqk-23" value="" style="endArrow=classic;html=1;exitX=0;exitY=0.5;exitDx=0;exitDy=0;entryX=1.005;entryY=0.476;entryDx=0;entryDy=0;entryPerimeter=0;" edge="1" parent="1" source="SjMGYK_2kaPN_tZI_Yqk-10" target="SjMGYK_2kaPN_tZI_Yqk-26">
          <mxGeometry width="50" height="50" relative="1" as="geometry">
            <mxPoint x="569.0000000000002" y="296.5" as="sourcePoint"/>
            <mxPoint x="228.23000000000002" y="272.0619999999999" as="targetPoint"/>
            <Array as="points"/>
          </mxGeometry>
        </mxCell>
        <mxCell id="SjMGYK_2kaPN_tZI_Yqk-24" value="生成指令" style="text;html=1;resizable=0;points=[];align=center;verticalAlign=middle;labelBackgroundColor=#ffffff;direction=south;" vertex="1" connectable="0" parent="SjMGYK_2kaPN_tZI_Yqk-23">
          <mxGeometry x="-0.3086" relative="1" as="geometry">
            <mxPoint x="-7" y="-22" as="offset"/>
          </mxGeometry>
        </mxCell>
        <mxCell id="SjMGYK_2kaPN_tZI_Yqk-26" value="&lt;p style=&quot;font-size: 14px&quot;&gt;&lt;font style=&quot;font-size: 14px&quot;&gt;&lt;b&gt;&lt;span&gt;&amp;nbsp;&amp;nbsp;&amp;nbsp;&amp;nbsp;&amp;nbsp;&amp;nbsp;&amp;nbsp;&amp;nbsp;&amp;nbsp;&amp;nbsp;&amp;nbsp;&amp;nbsp;&amp;nbsp;&amp;nbsp;&amp;nbsp; LD&amp;nbsp;&amp;nbsp; B-&amp;gt;AE&lt;/span&gt;&lt;/b&gt;&lt;/font&gt;&lt;/p&gt;&lt;p style=&quot;font-size: 14px&quot;&gt;&lt;font style=&quot;font-size: 14px&quot;&gt;&lt;b&gt;&lt;span&gt;&amp;nbsp;&amp;nbsp;&amp;nbsp;&amp;nbsp;&amp;nbsp;&amp;nbsp;&amp;nbsp;&amp;nbsp;&amp;nbsp;&amp;nbsp;&amp;nbsp;&amp;nbsp;&amp;nbsp;&amp;nbsp;&amp;nbsp; LD&amp;nbsp;&amp;nbsp; C-&amp;gt;AES&lt;br&gt;&lt;/span&gt;&lt;/b&gt;&lt;/font&gt;&lt;/p&gt;&lt;p style=&quot;font-size: 14px&quot;&gt;&lt;font style=&quot;font-size: 14px&quot;&gt;&lt;b&gt;&lt;span&gt;&amp;nbsp;&amp;nbsp;&amp;nbsp;&amp;nbsp;&amp;nbsp;&amp;nbsp;&amp;nbsp;&amp;nbsp;&amp;nbsp;&amp;nbsp;&amp;nbsp;&amp;nbsp;&amp;nbsp;&amp;nbsp;&amp;nbsp; ADD AE+AES -&amp;gt;AE&lt;/span&gt;&lt;/b&gt;&lt;/font&gt;&lt;/p&gt;&lt;p style=&quot;font-size: 14px&quot;&gt;&lt;font style=&quot;font-size: 14px&quot;&gt;&lt;b&gt;&lt;span&gt;&amp;nbsp;&amp;nbsp;&amp;nbsp;&amp;nbsp;&amp;nbsp;&amp;nbsp;&amp;nbsp;&amp;nbsp;&amp;nbsp;&amp;nbsp;&amp;nbsp;&amp;nbsp;&amp;nbsp;&amp;nbsp;&amp;nbsp; LD&amp;nbsp;&amp;nbsp;&amp;nbsp; A-&amp;gt;AES&lt;/span&gt;&lt;/b&gt;&lt;/font&gt;&lt;/p&gt;&lt;p style=&quot;font-size: 14px&quot;&gt;&lt;font style=&quot;font-size: 14px&quot;&gt;&lt;b&gt;&lt;span&gt;&amp;nbsp;&amp;nbsp;&amp;nbsp;&amp;nbsp;&amp;nbsp;&amp;nbsp;&amp;nbsp;&amp;nbsp;&amp;nbsp;&amp;nbsp;&amp;nbsp;&amp;nbsp;&amp;nbsp;&amp;nbsp;&amp;nbsp; ADD&amp;nbsp; AE+AES-&amp;gt;AE&lt;/span&gt;&lt;/b&gt;&lt;/font&gt;&lt;/p&gt;&lt;p style=&quot;font-size: 14px&quot;&gt;&lt;font style=&quot;font-size: 14px&quot;&gt;&lt;b&gt;&lt;span&gt;&amp;nbsp;&amp;nbsp;&amp;nbsp;&amp;nbsp;&amp;nbsp;&amp;nbsp;&amp;nbsp;&amp;nbsp;&amp;nbsp;&amp;nbsp;&amp;nbsp;&amp;nbsp;&amp;nbsp;&amp;nbsp;&amp;nbsp; LD&amp;nbsp;&amp;nbsp;&amp;nbsp; D-&amp;gt;AES&lt;/span&gt;&lt;/b&gt;&lt;/font&gt;&lt;/p&gt;&lt;p style=&quot;font-size: 14px&quot;&gt;&lt;font style=&quot;font-size: 14px&quot;&gt;&lt;b&gt;&lt;span&gt;&amp;nbsp;&amp;nbsp;&amp;nbsp;&amp;nbsp;&amp;nbsp;&amp;nbsp;&amp;nbsp;&amp;nbsp;&amp;nbsp;&amp;nbsp;&amp;nbsp;&amp;nbsp;&amp;nbsp;&amp;nbsp;&amp;nbsp; ADD&amp;nbsp; AE+AES-&amp;gt;AE&lt;/span&gt;&lt;/b&gt;&lt;/font&gt;&lt;/p&gt;&lt;p style=&quot;font-size: 14px&quot;&gt;&lt;font style=&quot;font-size: 14px&quot;&gt;&lt;b&gt;&lt;span&gt;&amp;nbsp;&amp;nbsp;&amp;nbsp;&amp;nbsp;&amp;nbsp;&amp;nbsp;&amp;nbsp;&amp;nbsp;&amp;nbsp;&amp;nbsp;&amp;nbsp;&amp;nbsp;&amp;nbsp;&amp;nbsp;&amp;nbsp; ST&amp;nbsp;&amp;nbsp;&amp;nbsp; AE-&amp;gt; A &lt;/span&gt;&amp;nbsp;&amp;nbsp; &lt;br&gt;&lt;/b&gt;&lt;/font&gt;&lt;/p&gt;" style="rounded=0;whiteSpace=wrap;html=1;align=left;" vertex="1" parent="1">
          <mxGeometry x="10" y="415" width="225" height="250" as="geometry"/>
        </mxCell>
        <mxCell id="SjMGYK_2kaPN_tZI_Yqk-30" value="&lt;p&gt;&lt;span&gt;&amp;nbsp;&amp;nbsp;&amp;nbsp;&amp;nbsp;&amp;nbsp;&amp;nbsp;&amp;nbsp;&amp;nbsp;&amp;nbsp;&amp;nbsp;&amp;nbsp;&amp;nbsp;&amp;nbsp;&amp;nbsp;&amp;nbsp;&amp;nbsp;&amp;nbsp;&amp;nbsp;&amp;nbsp;&amp;nbsp; &lt;b&gt;LD&lt;/b&gt;&amp;nbsp; A&lt;/span&gt;&lt;/p&gt;&lt;div&gt;&amp;nbsp;&amp;nbsp;&amp;nbsp;&amp;nbsp;&amp;nbsp;&amp;nbsp;&amp;nbsp;&amp;nbsp;&amp;nbsp;&amp;nbsp;&amp;nbsp;&amp;nbsp;&amp;nbsp;&amp;nbsp;&amp;nbsp;&amp;nbsp;&amp;nbsp;&amp;nbsp;&amp;nbsp; &lt;b&gt;ADD&lt;/b&gt;{&lt;/div&gt;&lt;div&gt;&amp;nbsp;&amp;nbsp;&amp;nbsp;&amp;nbsp;&amp;nbsp;&amp;nbsp;&amp;nbsp;&amp;nbsp;&amp;nbsp;&amp;nbsp;&amp;nbsp;&amp;nbsp;&amp;nbsp;&amp;nbsp;&amp;nbsp;&amp;nbsp;&amp;nbsp;&amp;nbsp;&amp;nbsp; B&lt;/div&gt;&lt;div&gt;&amp;nbsp; &amp;nbsp; &amp;nbsp; &amp;nbsp; &amp;nbsp; &amp;nbsp; &amp;nbsp; &amp;nbsp; &amp;nbsp; &amp;nbsp; &lt;b&gt;ADD&lt;/b&gt; C}&lt;/div&gt;&lt;div&gt;&lt;br&gt;&lt;/div&gt;&lt;div align=&quot;left&quot;&gt;&amp;nbsp;&amp;nbsp;&amp;nbsp;&amp;nbsp;&amp;nbsp;&amp;nbsp;&amp;nbsp;&amp;nbsp;&amp;nbsp;&amp;nbsp;&amp;nbsp;&amp;nbsp;&amp;nbsp;&amp;nbsp;&amp;nbsp;&amp;nbsp;&amp;nbsp;&amp;nbsp;&amp;nbsp; ADD D&lt;/div&gt;&lt;div align=&quot;left&quot;&gt;&lt;br&gt;&lt;/div&gt;&lt;div align=&quot;left&quot;&gt;&amp;nbsp;&amp;nbsp;&amp;nbsp;&amp;nbsp;&amp;nbsp;&amp;nbsp;&amp;nbsp;&amp;nbsp;&amp;nbsp;&amp;nbsp;&amp;nbsp;&amp;nbsp;&amp;nbsp;&amp;nbsp;&amp;nbsp;&amp;nbsp;&amp;nbsp;&amp;nbsp;&amp;nbsp; ST A&lt;br&gt;&lt;/div&gt;" style="rounded=0;whiteSpace=wrap;html=1;align=left;" vertex="1" parent="1">
          <mxGeometry x="30" y="-410" width="190" height="143" as="geometry"/>
        </mxCell>
        <mxCell id="SjMGYK_2kaPN_tZI_Yqk-42" value="" style="edgeStyle=orthogonalEdgeStyle;rounded=0;orthogonalLoop=1;jettySize=auto;html=1;startArrow=classic;startFill=1;entryX=0.5;entryY=0;entryDx=0;entryDy=0;" edge="1" parent="1" source="SjMGYK_2kaPN_tZI_Yqk-33" target="SjMGYK_2kaPN_tZI_Yqk-34">
          <mxGeometry relative="1" as="geometry">
            <mxPoint x="320" y="775" as="targetPoint"/>
          </mxGeometry>
        </mxCell>
        <mxCell id="SjMGYK_2kaPN_tZI_Yqk-33" value="输入调度" style="rounded=0;whiteSpace=wrap;html=1;" vertex="1" parent="1">
          <mxGeometry x="413" y="790" width="220" height="50" as="geometry"/>
        </mxCell>
        <mxCell id="SjMGYK_2kaPN_tZI_Yqk-45" value="&lt;font style=&quot;font-size: 14px&quot;&gt;循环任务调度模块&lt;/font&gt;" style="rounded=0;whiteSpace=wrap;html=1;" vertex="1" parent="1">
          <mxGeometry x="414" y="870" width="40" height="210" as="geometry"/>
        </mxCell>
        <mxCell id="SjMGYK_2kaPN_tZI_Yqk-60" value="输出调度" style="rounded=0;whiteSpace=wrap;html=1;" vertex="1" parent="1">
          <mxGeometry x="100" y="1160" width="611" height="40" as="geometry"/>
        </mxCell>
        <mxCell id="SjMGYK_2kaPN_tZI_Yqk-38" value="" style="edgeStyle=orthogonalEdgeStyle;rounded=0;orthogonalLoop=1;jettySize=auto;html=1;startArrow=classic;startFill=1;" edge="1" parent="1" source="SjMGYK_2kaPN_tZI_Yqk-34" target="SjMGYK_2kaPN_tZI_Yqk-37">
          <mxGeometry relative="1" as="geometry"/>
        </mxCell>
        <mxCell id="SjMGYK_2kaPN_tZI_Yqk-34" value="双口SRAM" style="rounded=0;whiteSpace=wrap;html=1;" vertex="1" parent="1">
          <mxGeometry x="250" y="870" width="115" height="50" as="geometry"/>
        </mxCell>
        <mxCell id="SjMGYK_2kaPN_tZI_Yqk-40" value="" style="edgeStyle=orthogonalEdgeStyle;rounded=0;orthogonalLoop=1;jettySize=auto;html=1;startArrow=classic;startFill=1;" edge="1" parent="1" source="SjMGYK_2kaPN_tZI_Yqk-37" target="SjMGYK_2kaPN_tZI_Yqk-39">
          <mxGeometry relative="1" as="geometry"/>
        </mxCell>
        <mxCell id="SjMGYK_2kaPN_tZI_Yqk-37" value="SRAM控制器" style="rounded=0;whiteSpace=wrap;html=1;" vertex="1" parent="1">
          <mxGeometry x="250" y="960" width="115" height="50" as="geometry"/>
        </mxCell>
        <mxCell id="SjMGYK_2kaPN_tZI_Yqk-39" value="AHB从接口模块" style="rounded=0;whiteSpace=wrap;html=1;" vertex="1" parent="1">
          <mxGeometry x="250" y="1050" width="115" height="50" as="geometry"/>
        </mxCell>
        <mxCell id="SjMGYK_2kaPN_tZI_Yqk-50" value="定时任务调度模块" style="rounded=0;whiteSpace=wrap;html=1;" vertex="1" parent="1">
          <mxGeometry x="505" y="915" width="37" height="165" as="geometry"/>
        </mxCell>
        <mxCell id="SjMGYK_2kaPN_tZI_Yqk-51" value="中断任务调度模块" style="rounded=0;whiteSpace=wrap;html=1;" vertex="1" parent="1">
          <mxGeometry x="598" y="872" width="37" height="208" as="geometry"/>
        </mxCell>
        <mxCell id="SjMGYK_2kaPN_tZI_Yqk-52" value="" style="endArrow=classic;startArrow=classic;html=1;entryX=0.1;entryY=1;entryDx=0;entryDy=0;entryPerimeter=0;exitX=0.5;exitY=0;exitDx=0;exitDy=0;" edge="1" parent="1" source="SjMGYK_2kaPN_tZI_Yqk-45" target="SjMGYK_2kaPN_tZI_Yqk-33">
          <mxGeometry width="50" height="50" relative="1" as="geometry">
            <mxPoint x="10" y="1170" as="sourcePoint"/>
            <mxPoint x="60" y="1120" as="targetPoint"/>
          </mxGeometry>
        </mxCell>
        <mxCell id="SjMGYK_2kaPN_tZI_Yqk-53" value="" style="endArrow=classic;startArrow=classic;html=1;entryX=0.5;entryY=1;entryDx=0;entryDy=0;exitX=0.5;exitY=0;exitDx=0;exitDy=0;" edge="1" parent="1" source="SjMGYK_2kaPN_tZI_Yqk-50" target="SjMGYK_2kaPN_tZI_Yqk-33">
          <mxGeometry width="50" height="50" relative="1" as="geometry">
            <mxPoint x="444" y="880" as="sourcePoint"/>
            <mxPoint x="445" y="850" as="targetPoint"/>
          </mxGeometry>
        </mxCell>
        <mxCell id="SjMGYK_2kaPN_tZI_Yqk-54" value="" style="endArrow=classic;startArrow=classic;html=1;entryX=0.923;entryY=1;entryDx=0;entryDy=0;entryPerimeter=0;exitX=0.5;exitY=0;exitDx=0;exitDy=0;" edge="1" parent="1" source="SjMGYK_2kaPN_tZI_Yqk-51" target="SjMGYK_2kaPN_tZI_Yqk-33">
          <mxGeometry width="50" height="50" relative="1" as="geometry">
            <mxPoint x="454" y="890" as="sourcePoint"/>
            <mxPoint x="455" y="860" as="targetPoint"/>
          </mxGeometry>
        </mxCell>
        <mxCell id="SjMGYK_2kaPN_tZI_Yqk-55" value="" style="endArrow=none;startArrow=classic;html=1;exitX=1;exitY=0.5;exitDx=0;exitDy=0;endFill=0;entryX=0.027;entryY=0.358;entryDx=0;entryDy=0;entryPerimeter=0;" edge="1" parent="1" source="SjMGYK_2kaPN_tZI_Yqk-45" target="SjMGYK_2kaPN_tZI_Yqk-50">
          <mxGeometry width="50" height="50" relative="1" as="geometry">
            <mxPoint x="444" y="880" as="sourcePoint"/>
            <mxPoint x="504" y="967" as="targetPoint"/>
          </mxGeometry>
        </mxCell>
        <mxCell id="SjMGYK_2kaPN_tZI_Yqk-57" value="" style="endArrow=none;startArrow=classic;html=1;entryX=0;entryY=0.5;entryDx=0;entryDy=0;exitX=0.986;exitY=0.37;exitDx=0;exitDy=0;endFill=0;exitPerimeter=0;" edge="1" parent="1" source="SjMGYK_2kaPN_tZI_Yqk-50" target="SjMGYK_2kaPN_tZI_Yqk-51">
          <mxGeometry width="50" height="50" relative="1" as="geometry">
            <mxPoint x="541.5" y="952" as="sourcePoint"/>
            <mxPoint x="591.482" y="952.9949999999999" as="targetPoint"/>
          </mxGeometry>
        </mxCell>
        <mxCell id="SjMGYK_2kaPN_tZI_Yqk-68" value="" style="edgeStyle=orthogonalEdgeStyle;rounded=0;orthogonalLoop=1;jettySize=auto;html=1;startArrow=none;startFill=0;endArrow=classic;endFill=1;" edge="1" parent="1" source="SjMGYK_2kaPN_tZI_Yqk-62" target="SjMGYK_2kaPN_tZI_Yqk-65">
          <mxGeometry relative="1" as="geometry"/>
        </mxCell>
        <mxCell id="SjMGYK_2kaPN_tZI_Yqk-78" value="" style="edgeStyle=orthogonalEdgeStyle;rounded=0;orthogonalLoop=1;jettySize=auto;html=1;startArrow=classic;startFill=1;endArrow=none;endFill=0;" edge="1" parent="1" source="SjMGYK_2kaPN_tZI_Yqk-62" target="SjMGYK_2kaPN_tZI_Yqk-34">
          <mxGeometry relative="1" as="geometry"/>
        </mxCell>
        <mxCell id="SjMGYK_2kaPN_tZI_Yqk-62" value="急停信号" style="rounded=0;whiteSpace=wrap;html=1;" vertex="1" parent="1">
          <mxGeometry x="90" y="870" width="130" height="50" as="geometry"/>
        </mxCell>
        <mxCell id="SjMGYK_2kaPN_tZI_Yqk-65" value="急停任务调度模块" style="rounded=0;whiteSpace=wrap;html=1;" vertex="1" parent="1">
          <mxGeometry x="130" y="970" width="50" height="110" as="geometry"/>
        </mxCell>
        <mxCell id="SjMGYK_2kaPN_tZI_Yqk-73" value="" style="endArrow=classic;html=1;exitX=0.5;exitY=1;exitDx=0;exitDy=0;entryX=0.09;entryY=0.05;entryDx=0;entryDy=0;entryPerimeter=0;" edge="1" parent="1" source="SjMGYK_2kaPN_tZI_Yqk-65" target="SjMGYK_2kaPN_tZI_Yqk-60">
          <mxGeometry width="50" height="50" relative="1" as="geometry">
            <mxPoint x="10" y="1250" as="sourcePoint"/>
            <mxPoint x="60" y="1200" as="targetPoint"/>
          </mxGeometry>
        </mxCell>
      </root>
    </mxGraphModel>
  </diagram>
</mxfile>
